<svg width="148" height="37" viewBox="0 0 148 37" fill="none" xmlns="http://www.w3.org/2000/svg">
<path d="M8.41768 8.66923L7.5132 7.4545L5.70114 8.81852L6.60562 10.0333L8.41768 8.66923Z" fill="#0D9E86"/>
<path d="M12.0408 5.94053L11.1362 4.72594L9.32436 6.09019L10.229 7.30477L12.0408 5.94053Z" fill="#0D9E86"/>
<path d="M28.1337 5.55388L26.2245 5.18856L26.4779 3.69304L28.3875 4.05799L28.1337 5.55388Z" fill="#0D9E86"/>
<path d="M24.2469 3.31039L22.0158 2.92785L21.7621 4.42341L23.9933 4.80594L24.2469 3.31039Z" fill="#0D9E86"/>
<path d="M19.7839 2.54481L17.5524 2.16244L17.2989 3.65836L19.5304 4.04074L19.7839 2.54481Z" fill="#0D9E86"/>
<path d="M14.3824 28.1227L13.2745 26.1383L11.9585 26.8811L13.0663 28.8655L14.3824 28.1227Z" fill="#0D9E86"/>
<path d="M12.1665 24.1534L11.0586 22.169L9.74256 22.9118L10.8504 24.8962L12.1665 24.1534Z" fill="#0D9E86"/>
<path d="M23.0094 30.7808L22.3001 29.4415L20.3025 30.5111L21.0118 31.8504L23.0094 30.7808Z" fill="#0D9E86"/>
<path d="M27.0061 28.6453L26.2971 27.3057L24.2991 28.3748L25.0081 29.7144L27.0061 28.6453Z" fill="#0D9E86"/>
<path d="M31.0021 26.5061L30.2931 25.1665L28.295 26.2356L29.0041 27.5752L31.0021 26.5061Z" fill="#0D9E86"/>
<path d="M30.3548 7.73578L30.0788 7.73206C29.0972 7.73206 27.7274 6.83252 27.7274 5.3675C27.7274 3.73992 28.6724 2.64618 30.0788 2.64618C31.7508 2.64618 32.7853 3.87384 32.7853 5.01074C32.7853 6.06058 32.4841 6.82545 31.8892 7.28378C31.3653 7.68891 30.7622 7.73578 30.3548 7.73578ZM30.0788 4.16327C29.3458 4.16327 29.2363 4.91773 29.2363 5.3675C29.2363 5.95195 29.9064 6.21459 30.0788 6.21459L30.3548 6.21831C30.5587 6.21831 30.8121 6.20269 30.9712 6.07992C31.1681 5.92814 31.2765 5.5483 31.2765 5.01036C31.2765 4.72465 30.915 4.16327 30.0788 4.16327Z" fill="#0D9E86"/>
<path d="M34.5691 25.573L34.2934 25.5693C33.3115 25.5693 31.9421 24.6698 31.9421 23.2051C31.9421 21.5772 32.8875 20.4834 34.2934 20.4834C35.9655 20.4834 37 21.7111 37 22.848C37 23.8978 36.6988 24.6631 36.1039 25.1214C35.5792 25.5258 34.9765 25.573 34.5691 25.573ZM34.2934 22.0009C33.5605 22.0009 33.4513 22.755 33.4513 23.2051C33.4513 23.7892 34.1207 24.0518 34.2934 24.0518L34.5691 24.0556C34.773 24.0556 35.0268 24.0399 35.1855 23.9175C35.3827 23.7658 35.4908 23.3859 35.4908 22.848C35.4908 22.5615 35.1289 22.0009 34.2934 22.0009Z" fill="#0D9E86"/>
<path d="M28.5799 37L28.3039 36.9963C27.3223 36.9963 25.9525 36.0971 25.9525 34.6325C25.9525 33.0045 26.8975 31.9108 28.3039 31.9108C29.9755 31.9108 31.0104 33.1384 31.0104 34.2753C31.0104 35.3252 30.7092 36.09 30.1143 36.5484C29.59 36.9531 28.9876 37 28.5799 37ZM28.3039 33.4275C27.5709 33.4275 27.4618 34.1819 27.4618 34.6321C27.4618 35.2162 28.1315 35.4788 28.3039 35.4788L28.5799 35.4825C28.7834 35.4825 29.0368 35.4665 29.1959 35.3445C29.3928 35.1927 29.5012 34.8125 29.5012 34.275C29.5012 33.9889 29.1401 33.4275 28.3039 33.4275Z" fill="#0D9E86"/>
<path d="M16.6666 35.8672L16.3906 35.8635C15.4086 35.8635 14.0393 34.9636 14.0393 33.4989C14.0393 31.8713 14.9842 30.778 16.3906 30.778C18.0623 30.778 19.0972 32.0056 19.0972 33.1425C19.0972 34.1924 18.796 34.9572 18.201 35.4156C17.6764 35.8203 17.074 35.8672 16.6666 35.8672ZM16.3906 32.2951C15.6943 32.2951 15.5481 32.9498 15.5481 33.4989C15.5481 34.0837 16.2182 34.3464 16.3906 34.3464L16.6666 34.3501C16.8701 34.3501 17.124 34.3341 17.2827 34.2121C17.4795 34.0603 17.5883 33.6801 17.5883 33.1425C17.5883 32.8561 17.2268 32.2951 16.3906 32.2951Z" fill="#0D9E86"/>
<path d="M7.31192 32.9855L7.03591 32.9814C6.05393 32.9814 4.68455 32.0823 4.68455 30.6176C4.68455 28.9897 5.62953 27.8959 7.03591 27.8959C8.70757 27.8959 9.74246 29.1236 9.74246 30.2605C9.74246 31.3103 9.44128 32.0752 8.84632 32.5339C8.32166 32.9383 7.71929 32.9855 7.31192 32.9855ZM7.03591 29.4126C6.30294 29.4126 6.19341 30.1671 6.19341 30.6173C6.19341 31.2013 6.86312 31.464 7.03591 31.464L7.31192 31.4677C7.51542 31.4677 7.76924 31.4517 7.92797 31.3297C8.12481 31.1779 8.23359 30.7981 8.23359 30.2601C8.23322 29.974 7.87174 29.4126 7.03591 29.4126Z" fill="#0D9E86"/>
<path d="M9.4187 23.5344L9.14268 23.5306C8.1607 23.5306 6.79096 22.6311 6.79096 21.1665C6.79096 19.5385 7.73594 18.4448 9.14268 18.4448C10.8143 18.4448 11.8492 19.6724 11.8492 20.8093C11.8492 21.8592 11.5481 22.6244 10.9535 23.0827C10.4284 23.4871 9.82607 23.5344 9.4187 23.5344ZM9.14268 19.9615C8.40971 19.9615 8.30019 20.7159 8.30019 21.1661C8.30019 21.7502 8.96989 22.0128 9.14268 22.0128L9.4187 22.0165C9.6222 22.0165 9.87602 22.0009 10.0351 21.8785C10.232 21.7267 10.3404 21.3469 10.3404 20.8089C10.34 20.5229 9.97851 19.9615 9.14268 19.9615Z" fill="#0D9E86"/>
<path d="M4.28086 11.7834L4.79331 11.3976L3.88903 10.1829L3.33736 10.5981C3.87904 10.8693 4.20686 11.338 4.28086 11.7834Z" fill="#0D9E86"/>
<path d="M2.62774 14.6996L2.35172 14.6955C1.36937 14.6955 0 13.7964 0 12.331C0 10.7034 0.94498 9.60965 2.35135 9.60965C4.02301 9.60965 5.0579 10.8373 5.0579 11.9742C5.0579 13.0244 4.75635 13.7889 4.16176 14.248C3.63747 14.6524 3.03511 14.6996 2.62774 14.6996ZM2.35135 11.1267C1.61838 11.1267 1.50886 11.8812 1.50886 12.331C1.50886 12.9154 2.17893 13.1784 2.35135 13.1784L2.62737 13.1822C2.83087 13.1822 3.08469 13.1665 3.24342 13.0438C3.44026 12.892 3.54904 12.5121 3.54904 11.9742C3.54904 11.6878 3.18755 11.1267 2.35135 11.1267Z" fill="#0D9E86"/>
<path d="M14.3515 2.72171C14.3515 2.56955 14.3641 2.42297 14.3845 2.28086L12.9485 3.36232L13.8531 4.57697L14.8429 3.83181C14.5624 3.56731 14.3515 3.19789 14.3515 2.72171Z" fill="#0D9E86"/>
<path d="M16.2249 5.08998L15.9488 5.08626C14.9669 5.08626 13.5975 4.18671 13.5975 2.72207C13.5971 1.09374 14.5421 0 15.9485 0C17.6201 0 18.655 1.22767 18.655 2.36493C18.655 3.41477 18.3535 4.17965 17.7589 4.63797C17.2346 5.0431 16.6322 5.08998 16.2249 5.08998ZM15.9485 1.51747C15.2155 1.51747 15.106 2.27193 15.106 2.7217C15.106 3.30614 15.776 3.56879 15.9485 3.56879L16.2245 3.57251C16.428 3.57251 16.6818 3.55688 16.8405 3.43412C17.0374 3.28233 17.1462 2.9025 17.1462 2.36456C17.1462 2.07848 16.7847 1.51747 15.9485 1.51747Z" fill="#0D9E86"/>
<path d="M7.0359 28.6541C7.53688 28.6541 7.94573 28.8025 8.26208 29.0228L9.50602 22.7743C9.36505 22.7773 9.23888 22.7713 9.14268 22.7713C8.85371 22.7713 8.40897 22.6125 8.06191 22.2978L6.79096 28.6801C6.87125 28.669 6.94858 28.6541 7.0359 28.6541Z" fill="#0D9E86"/>
<path d="M16.2948 31.5458L15.4919 30.1083L14.1758 30.8516L15.0283 32.378C15.2647 31.8959 15.6862 31.5782 16.2948 31.5458Z" fill="#0D9E86"/>
<path d="M14.8293 33.8159C14.8078 33.7151 14.7937 33.6109 14.7937 33.4989C14.7937 33.0436 14.8907 32.6306 15.076 32.2977L8.98399 30.2263C8.98399 30.2374 8.98806 30.2493 8.98806 30.2605C8.98806 30.9606 8.83488 31.41 8.61177 31.7013L14.8293 33.8159Z" fill="#0D9E86"/>
<path d="M18.3428 33.1425C18.3428 33.1935 18.3383 33.2366 18.3368 33.285L19.0136 32.9223L18.3043 31.5826L17.6523 31.932C18.0967 32.2575 18.3428 32.7281 18.3428 33.1425Z" fill="#0D9E86"/>
<path d="M32.8216 23.8015L28.5211 32.689C29.1245 32.7433 29.5845 33.0086 29.8775 33.3538L34.0289 24.7751C33.6064 24.6731 33.0621 24.3487 32.8216 23.8015Z" fill="#0D9E86"/>
<path d="M16.4739 3.79014L14.9928 4.08218L16.125 9.88941C16.7462 9.91992 17.2801 10.0531 17.7341 10.2555L16.4739 3.79014Z" fill="#0D9E86"/>
<path d="M10.5694 19.7267C10.9109 20.0411 11.0944 20.4477 11.0944 20.8089C11.0944 20.9347 11.0885 21.0504 11.0793 21.1605L14.1684 19.7453C13.8609 19.3603 13.5535 18.9388 13.2634 18.4927L10.5694 19.7267Z" fill="#0D9E86"/>
<path d="M11.7205 13.8265L4.26867 12.4802C4.14065 13.4496 3.64411 13.7815 3.16163 13.889L7.7463 20.1475C7.96423 19.6471 8.3679 19.3064 8.9599 19.2457L5.26545 14.2019L11.8688 15.3949C11.7667 14.9515 11.7086 14.5013 11.7086 14.0501C11.709 13.9746 11.7168 13.9009 11.7205 13.8265Z" fill="#0D9E86"/>
<path d="M16.0454 31.5722C16.1538 31.5503 16.2678 31.5358 16.3906 31.5358C16.8468 31.5358 17.2294 31.6574 17.5332 31.8449L18.4989 23.4417C18.1555 23.3978 17.7563 23.2141 17.0685 22.6698L16.0454 31.5722Z" fill="#0D9E86"/>
<path d="M26.9704 33.4625C27.2187 32.9948 27.6442 32.6883 28.2606 32.6734L21.3234 21.8606C20.9549 22.2074 20.5524 22.5537 20.1524 22.8342L26.9704 33.4625Z" fill="#0D9E86"/>
<path d="M18.8093 20.7409L18.8267 20.5898L18.7461 20.6419L18.8093 20.7409Z" fill="#0D9E86"/>
<path d="M31.6258 6.53788C31.2088 7.04495 30.5687 7.03453 30.1902 7.02672L33.3962 20.8357L24.891 17.1516C24.672 17.6148 24.4196 18.0601 24.1503 18.4827L32.8623 22.2568C33.0902 21.6542 33.5586 21.242 34.2938 21.242C34.5839 21.242 34.8418 21.2944 35.0719 21.3781L31.6258 6.53788Z" fill="#0D9E86"/>
<path d="M24.989 11.7696L29.6255 6.93222C29.2015 6.77598 28.7246 6.42032 28.5514 5.86639L23.9445 10.6725C24.3552 10.9716 24.7101 11.3425 24.989 11.7696Z" fill="#0D9E86"/>
<path d="M21.5181 11.2056C19.1597 11.2056 18.6887 13.2915 18.6887 13.2915C18.6887 13.2915 18.3113 11.2056 15.8593 11.2056C14.2964 11.2056 13.0299 12.479 13.0299 14.0501C13.0299 17.7647 18.1859 22.127 18.6887 22.127C19.3802 22.127 24.3479 17.7175 24.3479 14.0501C24.3479 12.479 23.0806 11.2056 21.5181 11.2056Z" fill="#0D9E86"/>
<path d="M50.56 28.192C49.344 28.192 48.184 28.024 47.08 27.688C45.992 27.352 45.12 26.888 44.464 26.296C44.16 26.04 44.008 25.712 44.008 25.312C44.008 25.024 44.088 24.784 44.248 24.592C44.408 24.384 44.6 24.28 44.824 24.28C45.048 24.28 45.32 24.384 45.64 24.592C47.064 25.648 48.688 26.176 50.512 26.176C51.792 26.176 52.776 25.936 53.464 25.456C54.152 24.976 54.496 24.288 54.496 23.392C54.496 22.688 54.176 22.16 53.536 21.808C52.896 21.456 51.872 21.12 50.464 20.8C49.12 20.512 48.016 20.184 47.152 19.816C46.288 19.448 45.608 18.952 45.112 18.328C44.632 17.688 44.392 16.88 44.392 15.904C44.392 14.928 44.656 14.064 45.184 13.312C45.728 12.544 46.48 11.952 47.44 11.536C48.4 11.104 49.496 10.888 50.728 10.888C51.864 10.888 52.912 11.048 53.872 11.368C54.832 11.688 55.648 12.16 56.32 12.784C56.64 13.056 56.8 13.384 56.8 13.768C56.8 14.04 56.712 14.28 56.536 14.488C56.376 14.696 56.184 14.8 55.96 14.8C55.752 14.8 55.488 14.696 55.168 14.488C54.432 13.928 53.736 13.528 53.08 13.288C52.44 13.032 51.664 12.904 50.752 12.904C49.52 12.904 48.56 13.16 47.872 13.672C47.184 14.168 46.84 14.864 46.84 15.76C46.84 16.528 47.144 17.112 47.752 17.512C48.36 17.896 49.336 18.248 50.68 18.568C52.088 18.888 53.224 19.224 54.088 19.576C54.968 19.912 55.664 20.384 56.176 20.992C56.704 21.584 56.968 22.352 56.968 23.296C56.968 24.256 56.696 25.112 56.152 25.864C55.624 26.6 54.872 27.176 53.896 27.592C52.936 27.992 51.824 28.192 50.56 28.192ZM68.8949 25.048C69.1189 25.048 69.3029 25.136 69.4469 25.312C69.5909 25.488 69.6629 25.712 69.6629 25.984C69.6629 26.448 69.3749 26.84 68.7989 27.16C68.2389 27.48 67.6229 27.728 66.9509 27.904C66.2949 28.08 65.6629 28.168 65.0549 28.168C63.1989 28.168 61.7349 27.632 60.6629 26.56C59.5909 25.472 59.0549 23.992 59.0549 22.12C59.0549 20.92 59.2869 19.856 59.7509 18.928C60.2309 18 60.8949 17.28 61.7429 16.768C62.6069 16.256 63.5829 16 64.6709 16C66.2389 16 67.4789 16.504 68.3909 17.512C69.3029 18.52 69.7589 19.88 69.7589 21.592C69.7589 22.232 69.4709 22.552 68.8949 22.552H61.4789C61.6389 25.032 62.8309 26.272 65.0549 26.272C65.6469 26.272 66.1589 26.192 66.5909 26.032C67.0229 25.872 67.4789 25.664 67.9589 25.408C68.0069 25.376 68.1349 25.312 68.3429 25.216C68.5669 25.104 68.7509 25.048 68.8949 25.048ZM64.7189 17.776C63.7909 17.776 63.0469 18.072 62.4869 18.664C61.9269 19.256 61.5909 20.088 61.4789 21.16H67.6709C67.6229 20.072 67.3429 19.24 66.8309 18.664C66.3349 18.072 65.6309 17.776 64.7189 17.776ZM85.87 16C88.494 16 89.806 17.576 89.806 20.728V26.968C89.806 27.336 89.694 27.624 89.47 27.832C89.246 28.024 88.95 28.12 88.582 28.12C88.23 28.12 87.942 28.024 87.718 27.832C87.494 27.624 87.382 27.336 87.382 26.968V20.752C87.382 19.776 87.206 19.072 86.854 18.64C86.502 18.192 85.95 17.968 85.198 17.968C84.318 17.968 83.622 18.272 83.11 18.88C82.598 19.472 82.342 20.288 82.342 21.328V26.968C82.342 27.336 82.23 27.624 82.006 27.832C81.782 28.024 81.486 28.12 81.118 28.12C80.766 28.12 80.478 28.024 80.254 27.832C80.03 27.624 79.918 27.336 79.918 26.968V20.752C79.918 19.776 79.742 19.072 79.39 18.64C79.038 18.192 78.486 17.968 77.734 17.968C76.854 17.968 76.15 18.272 75.622 18.88C75.11 19.472 74.854 20.288 74.854 21.328V26.968C74.854 27.336 74.742 27.624 74.518 27.832C74.294 28.024 74.006 28.12 73.654 28.12C73.302 28.12 73.006 28.024 72.766 27.832C72.542 27.624 72.43 27.336 72.43 26.968V17.2C72.43 16.848 72.55 16.568 72.79 16.36C73.03 16.152 73.318 16.048 73.654 16.048C73.99 16.048 74.262 16.152 74.47 16.36C74.694 16.552 74.806 16.824 74.806 17.176V18.064C75.158 17.392 75.646 16.88 76.27 16.528C76.894 16.176 77.614 16 78.43 16C79.326 16 80.062 16.184 80.638 16.552C81.23 16.92 81.67 17.488 81.958 18.256C82.31 17.568 82.83 17.024 83.518 16.624C84.206 16.208 84.99 16 85.87 16ZM94.3493 28.12C93.9973 28.12 93.7013 28.024 93.4613 27.832C93.2373 27.64 93.1253 27.352 93.1253 26.968V12.136C93.1253 11.752 93.2373 11.464 93.4613 11.272C93.7013 11.064 93.9973 10.96 94.3493 10.96C94.7013 10.96 94.9893 11.064 95.2133 11.272C95.4373 11.464 95.5493 11.752 95.5493 12.136V26.968C95.5493 27.352 95.4373 27.64 95.2133 27.832C94.9893 28.024 94.7013 28.12 94.3493 28.12ZM107.266 16.768C107.362 16.528 107.498 16.352 107.674 16.24C107.866 16.128 108.066 16.072 108.274 16.072C108.578 16.072 108.842 16.176 109.066 16.384C109.306 16.592 109.426 16.84 109.426 17.128C109.426 17.288 109.394 17.44 109.33 17.584L102.658 31.744C102.562 31.968 102.418 32.136 102.226 32.248C102.05 32.376 101.858 32.44 101.65 32.44C101.362 32.44 101.098 32.344 100.858 32.152C100.634 31.96 100.522 31.72 100.522 31.432C100.522 31.304 100.562 31.144 100.642 30.952L102.298 27.424L97.6658 17.584C97.6018 17.456 97.5698 17.312 97.5698 17.152C97.5698 16.848 97.6978 16.592 97.9538 16.384C98.2098 16.176 98.4978 16.072 98.8178 16.072C99.2978 16.072 99.6418 16.296 99.8498 16.744L103.57 25L107.266 16.768ZM117.424 26.272C117.776 26.304 118.024 26.4 118.168 26.56C118.328 26.704 118.408 26.912 118.408 27.184C118.408 27.504 118.28 27.752 118.024 27.928C117.784 28.088 117.424 28.152 116.944 28.12L116.296 28.072C115 27.976 114.032 27.584 113.392 26.896C112.752 26.192 112.432 25.16 112.432 23.8V18.16H110.992C110.288 18.16 109.936 17.848 109.936 17.224C109.936 16.936 110.024 16.712 110.2 16.552C110.392 16.376 110.656 16.288 110.992 16.288H112.432V13.816C112.432 13.448 112.536 13.16 112.744 12.952C112.968 12.744 113.264 12.64 113.632 12.64C114 12.64 114.296 12.744 114.52 12.952C114.744 13.16 114.856 13.448 114.856 13.816V16.288H117.232C117.568 16.288 117.824 16.376 118 16.552C118.192 16.712 118.288 16.936 118.288 17.224C118.288 17.528 118.192 17.76 118 17.92C117.824 18.08 117.568 18.16 117.232 18.16H114.856V23.968C114.856 24.72 115.008 25.272 115.312 25.624C115.632 25.976 116.112 26.176 116.752 26.224L117.424 26.272ZM121.373 28.12C121.021 28.12 120.725 28.024 120.485 27.832C120.261 27.64 120.149 27.352 120.149 26.968V17.224C120.149 16.84 120.261 16.552 120.485 16.36C120.725 16.152 121.021 16.048 121.373 16.048C121.725 16.048 122.013 16.152 122.237 16.36C122.461 16.552 122.573 16.84 122.573 17.224V26.968C122.573 27.352 122.461 27.64 122.237 27.832C122.013 28.024 121.725 28.12 121.373 28.12ZM121.373 13.696C120.909 13.696 120.541 13.568 120.269 13.312C119.997 13.056 119.861 12.72 119.861 12.304C119.861 11.888 119.997 11.56 120.269 11.32C120.541 11.064 120.909 10.936 121.373 10.936C121.821 10.936 122.181 11.064 122.453 11.32C122.741 11.56 122.885 11.888 122.885 12.304C122.885 12.72 122.749 13.056 122.477 13.312C122.205 13.568 121.837 13.696 121.373 13.696ZM130.977 28.168C129.841 28.168 128.841 27.92 127.977 27.424C127.129 26.928 126.465 26.224 125.985 25.312C125.521 24.4 125.289 23.344 125.289 22.144C125.289 20.928 125.529 19.856 126.009 18.928C126.505 18 127.193 17.28 128.073 16.768C128.953 16.256 129.961 16 131.097 16C131.705 16 132.313 16.088 132.921 16.264C133.545 16.44 134.097 16.68 134.577 16.984C135.089 17.336 135.345 17.744 135.345 18.208C135.345 18.48 135.273 18.712 135.129 18.904C134.985 19.08 134.801 19.168 134.577 19.168C134.433 19.168 134.289 19.136 134.145 19.072C134.001 18.992 133.817 18.88 133.593 18.736C133.193 18.48 132.817 18.288 132.465 18.16C132.129 18.016 131.721 17.944 131.241 17.944C130.153 17.944 129.305 18.312 128.697 19.048C128.105 19.784 127.809 20.808 127.809 22.12C127.809 23.432 128.105 24.448 128.697 25.168C129.289 25.872 130.129 26.224 131.217 26.224C131.697 26.224 132.121 26.152 132.489 26.008C132.857 25.864 133.233 25.672 133.617 25.432C133.793 25.32 133.969 25.224 134.145 25.144C134.321 25.064 134.481 25.024 134.625 25.024C134.849 25.024 135.033 25.12 135.177 25.312C135.321 25.488 135.393 25.712 135.393 25.984C135.393 26.208 135.329 26.416 135.201 26.608C135.089 26.784 134.889 26.968 134.601 27.16C134.121 27.48 133.561 27.728 132.921 27.904C132.281 28.08 131.633 28.168 130.977 28.168ZM141.643 28.168C140.011 28.168 138.675 27.832 137.635 27.16C137.347 26.984 137.139 26.8 137.011 26.608C136.899 26.416 136.843 26.2 136.843 25.96C136.843 25.704 136.915 25.488 137.059 25.312C137.203 25.136 137.387 25.048 137.611 25.048C137.819 25.048 138.147 25.176 138.595 25.432C139.075 25.688 139.539 25.896 139.987 26.056C140.451 26.216 141.027 26.296 141.715 26.296C142.483 26.296 143.083 26.16 143.515 25.888C143.947 25.616 144.163 25.232 144.163 24.736C144.163 24.416 144.075 24.16 143.899 23.968C143.739 23.776 143.451 23.608 143.035 23.464C142.619 23.304 142.003 23.136 141.187 22.96C139.779 22.656 138.763 22.248 138.139 21.736C137.531 21.208 137.227 20.496 137.227 19.6C137.227 18.912 137.427 18.296 137.827 17.752C138.227 17.192 138.779 16.76 139.483 16.456C140.187 16.152 140.987 16 141.883 16C142.523 16 143.147 16.088 143.755 16.264C144.363 16.424 144.899 16.664 145.363 16.984C145.891 17.336 146.155 17.744 146.155 18.208C146.155 18.464 146.075 18.68 145.915 18.856C145.771 19.032 145.595 19.12 145.387 19.12C145.243 19.12 145.099 19.088 144.955 19.024C144.811 18.96 144.619 18.856 144.379 18.712C143.947 18.456 143.539 18.256 143.155 18.112C142.787 17.968 142.323 17.896 141.763 17.896C141.091 17.896 140.547 18.04 140.131 18.328C139.731 18.616 139.531 19.008 139.531 19.504C139.531 19.952 139.715 20.304 140.083 20.56C140.467 20.8 141.179 21.032 142.219 21.256C143.291 21.48 144.131 21.736 144.739 22.024C145.347 22.312 145.779 22.672 146.035 23.104C146.307 23.52 146.443 24.056 146.443 24.712C146.443 25.752 146.003 26.592 145.123 27.232C144.259 27.856 143.099 28.168 141.643 28.168Z" fill="#0D9E86"/>
</svg>
